{
  "title": "The Magnificent Seven (2016) ReadNFO TS XVID-1Click",
  "uid": 15907632,
  "size": 2186621414,
  "categoryP": "video",
  "categoryS": "movies",
  "magnet": "?xt=urn:btih:5efacb9e9795bc99af19105826c3353560b387a6&amp;dn=The+Magnificent+Seven+%282016%29+ReadNFO+TS+XVID-1Click&amp;tr=udp%3A%2F%2Ftracker.leechers-paradise.org%3A6969&amp;tr=udp%3A%2F%2Fzer0day.ch%3A1337&amp;tr=udp%3A%2F%2Fopen.demonii.com%3A1337&amp;tr=udp%3A%2F%2Ftracker.coppersurfer.tk%3A6969&amp;tr=udp%3A%2F%2Fexodus.desync.com%3A6969",
  "seeders": 79,
  "leechers": 60,
  "uploader": "makintos13",
  "files": 3,
  "time": 1475061464,
  "description": "Screens:\r\n \nhttps://imgmak.com/aBx\r\n \nhttps://imgmak.com/aBz\r\n \nhttps://imgmak.com/aB7\r\n\r\n \nhttp://www.imdb.com/title/tt2404435/\r\n\r\nSeven gun men in the old west gradually come together to help a poor village against savage thieves.\r\n\r\nNOTES:\r\nThis is no where near HD-TS but people still seem to tag it wrong not sure why. So took the Russian video and synced CPG audio (thanks to both). Its very watchable and a great movie too if you like westerns.\r\n\r\nVideo Source - Russian EZ (Thank You)\r\nAudio Source - CPG (Thank You)\r\n\r\nFormat                      : AVI\r\nFormat/Info                 : Audio Video Interleave\r\nFormat profile              : OpenDML\r\nFile size                   : 2.00 GiB\r\nDuration                    : 2 h 8 min\r\nOverall bit rate            : 2 239 kb/s\r\nWriting library             : VirtualDub build 30091/release\r\n\r\nVideo\r\nID                          : 0\r\nFormat                      : MPEG-4 Visual\r\nFormat profile              : Advanced   \r\nFormat settings, BVOP       : 2\r\nFormat settings, QPel       : No\r\nFormat settings, GMC        : No warppoints\r\nFormat settings, Matrix     : Default (H.263)\r\nMuxing mode                 : Packed bitstream\r\nCodec ID                    : XVID\r\nCodec ID/Hint               : XviD\r\nDuration                    : 2 h 8 min\r\nBit rate                    : 2 099 kb/s\r\nWidth                       : 720 pixels\r\nHeight                      : 304 pixels\r\nDisplay aspect ratio        : 2.35:1\r\nFrame rate                  : 29.970 (29970/1000) FPS\r\nColor space                 : YUV\r\nChroma subsampling          : 4:2:0\r\nBit depth                   : 8 bits\r\nScan type                   : Progressive\r\nCompression mode            : Lossy\r\nBits/(Pixel*Frame)          : 0.320\r\nStream size                 : 1.88 GiB (94%)\r\nWriting library             : XviD 67\r\n\r\nAudio\r\nID                          : 1\r\nFormat                      : MPEG Audio\r\nFormat version              : Version 1\r\nFormat profile              : Layer 3\r\nMode                        : Joint stereo\r\nMode extension              : MS Stereo\r\nCodec ID                    : 55\r\nCodec ID/Hint               : MP3\r\nDuration                    : 2 h 8 min\r\nBit rate mode               : Constant\r\nBit rate                    : 128 kb/s\r\nChannel(s)                  : 2 channels\r\nSampling rate               : 44.1 kHz\r\nCompression mode            : Lossy\r\nStream size                 : 117 MiB (6%)\r\nAlignment                   : Split accross interleaves\r\nInterleave, duration        : 72  ms (2.16 video frames)\r\nInterleave, preload duratio : 504  ms\r\nWriting library             : LAME3.98",
  "parsed": {
    "xt": "urn:btih:5efacb9e9795bc99af19105826c3353560b387a6",
    "dn": "The Magnificent Seven (2016) ReadNFO TS XVID-1Click",
    "tr": [
      "udp://exodus.desync.com:6969",
      "udp://open.demonii.com:1337",
      "udp://tracker.coppersurfer.tk:6969",
      "udp://tracker.leechers-paradise.org:6969",
      "udp://zer0day.ch:1337"
    ],
    "infoHash": "5efacb9e9795bc99af19105826c3353560b387a6",
    "infoHashBuffer": {
      "type": "Buffer",
      "data": [
        94,
        250,
        203,
        158,
        151,
        149,
        188,
        153,
        175,
        25,
        16,
        88,
        38,
        195,
        53,
        53,
        96,
        179,
        135,
        166
      ]
    },
    "name": "The Magnificent Seven (2016) ReadNFO TS XVID-1Click",
    "announce": [
      "udp://exodus.desync.com:6969",
      "udp://open.demonii.com:1337",
      "udp://tracker.coppersurfer.tk:6969",
      "udp://tracker.leechers-paradise.org:6969",
      "udp://zer0day.ch:1337"
    ],
    "urlList": []
  },
  "previous": 139,
  "peers": 40,
  "last_updated": "2016-12-25T02:31:15.183Z"
}